<?xml version="1.0" standalone="no"?>
<!DOCTYPE svg PUBLIC "-//W3C//DTD SVG 20010904//EN"
 "http://www.w3.org/TR/2001/REC-SVG-20010904/DTD/svg10.dtd">
<svg version="1.0" xmlns="http://www.w3.org/2000/svg"
 width="580.000000pt" height="386.000000pt" viewBox="0 0 580.000000 386.000000"
 preserveAspectRatio="xMidYMid meet">

<g transform="translate(0.000000,386.000000) scale(0.100000,-0.100000)"
fill="#000000" stroke="none">
<path d="M2627 2856 c-20 -14 -53 -44 -74 -67 -65 -72 -83 -86 -153 -113 -119
-47 -151 -95 -165 -247 -5 -52 -15 -81 -44 -131 -77 -132 -78 -164 -12 -290
41 -79 51 -106 60 -180 12 -99 26 -134 72 -172 18 -15 29 -32 26 -41 -3 -7
-51 -93 -106 -189 -56 -96 -101 -184 -101 -196 0 -11 9 -29 21 -41 21 -21 55
-22 223 -6 12 2 31 -25 69 -98 33 -63 59 -101 70 -103 52 -10 63 3 187 222
127 225 128 226 200 226 72 0 73 -1 200 -226 125 -218 136 -232 187 -222 11 2
37 40 70 103 l52 101 97 -9 c116 -10 141 -5 156 28 14 31 12 35 -93 222 -79
139 -95 158 -124 147 -34 -13 -25 -44 50 -175 41 -73 75 -137 75 -141 0 -8
-107 -2 -158 8 -39 8 -62 -15 -103 -103 -23 -52 -43 -83 -48 -77 -5 5 -48 77
-94 159 l-86 150 42 9 c34 6 56 23 119 87 62 64 92 86 155 115 126 57 151 91
164 222 8 71 16 96 59 178 65 124 65 145 1 268 -42 80 -51 106 -59 178 -15
138 -43 174 -175 228 -38 16 -75 41 -105 73 -76 79 -85 88 -117 108 -37 23
-91 24 -190 2 -70 -15 -80 -15 -150 0 -107 24 -155 22 -198 -7z m198 -72 c70
-14 83 -14 147 0 39 9 89 16 112 16 40 0 47 -5 116 -76 59 -62 89 -84 154
-114 110 -51 117 -60 133 -182 11 -90 18 -109 58 -178 57 -98 58 -124 5 -210
-46 -74 -56 -106 -66 -208 -9 -94 -28 -119 -126 -157 -62 -25 -85 -42 -154
-112 -92 -94 -89 -93 -222 -66 -78 16 -88 16 -166 0 -132 -27 -129 -28 -220
66 -69 70 -92 87 -153 111 -102 41 -112 54 -129 176 -14 103 -22 125 -74 207
-41 64 -39 103 6 178 47 78 60 115 68 200 11 113 16 120 122 170 77 37 105 57
165 120 83 86 88 87 224 59z m-270 -1291 c58 -62 78 -77 117 -87 l46 -11 -85
-150 c-46 -83 -89 -154 -94 -159 -5 -6 -23 22 -45 70 -47 103 -58 115 -103
109 -105 -13 -161 -15 -161 -6 0 8 35 72 152 274 l39 67 32 -16 c18 -9 64 -50
102 -91z"/>
<path d="M2750 2631 c-98 -32 -180 -84 -180 -114 0 -17 21 -37 38 -37 8 0 36
13 61 28 135 83 293 89 433 15 287 -150 309 -569 40 -742 -88 -56 -154 -73
-264 -68 -85 3 -106 8 -165 37 -216 106 -305 361 -203 579 35 74 37 87 11 101
-29 15 -46 4 -74 -49 -109 -199 -58 -473 115 -625 284 -248 736 -109 833 255
17 63 19 185 4 249 -29 127 -139 271 -255 332 -109 59 -281 76 -394 39z"/>
<path d="M2980 2195 l-126 -125 -64 65 c-51 51 -71 65 -90 63 -18 -2 -26 -10
-28 -27 -3 -19 15 -43 84 -112 49 -49 95 -89 103 -89 20 0 291 270 298 298 6
25 -12 52 -35 52 -8 0 -72 -56 -142 -125z"/>
</g>
</svg>
